<svg xmlns="http://www.w3.org/2000/svg" height="188.973" width="188.973"><path d="M188.976 162.31c0 14.665-11.997 26.663-26.661 26.663H26.663C11.998 188.973 0 176.975 0 162.311V26.66C0 11.996 11.998-.003 26.663-.003h135.652c14.664 0 26.661 11.999 26.661 26.664v135.65" fill="#050301"/><path d="M29.172 137.585h4.697c8.986 0 14.84-4.832 14.84-16.473 0-9.667-5.854-14.704-15.452-14.704h-4.085zm-8.17 6.74V99.67h12.8c15.112 0 23.484 7.556 23.484 21.034 0 16.134-9.121 23.622-23.757 23.622H21.003M72.195 144.325h-7.693v-33.492l7.693-.34zm-3.881-47.652c2.928 0 4.561 1.838 4.561 4.425 0 2.383-1.633 4.357-4.561 4.357s-4.493-1.77-4.493-4.357c0-2.382 1.565-4.425 4.493-4.425M99.356 121.997c0-4.084-2.247-6.263-6.536-6.263-3.812 0-6.535 2.179-6.535 6.74 0 4.357 2.451 6.194 6.4 6.194 4.22 0 6.671-1.974 6.671-6.67zm-7.08 29.953c7.351 0 10.007-1.838 10.007-4.493 0-1.974-1.226-3.064-4.562-3.132l-11.163-.34c-1.294.884-1.838 1.975-1.838 3.54 0 2.655 2.314 4.425 7.556 4.425zm-1.43-14.16h8.034c7.216 0 10.278 2.86 10.278 8.305 0 6.4-5.31 11.573-17.563 11.573-9.598 0-14.024-3.404-14.024-8.645 0-3.2 1.77-5.855 5.107-7.285v-.205c-1.566-.816-2.655-2.517-2.655-4.491 0-2.111 1.293-4.085 3.744-5.038v-.205c-3.064-1.701-4.833-4.56-4.833-8.917 0-8.169 5.513-12.594 14.023-12.594 1.838 0 3.472.204 5.173.68h10.893v5.106h-5.175v.205c1.43 1.09 2.657 3.403 2.657 6.33 0 7.421-5.04 11.302-14.297 11.302-1.498 0-2.927-.206-4.221-.546-.885.478-1.43 1.294-1.43 2.11 0 1.498 1.158 2.316 4.29 2.316" fill="#fff"/><path d="M121.955 144.325h-7.692v-33.492l7.692-.34zm-3.88-47.652c2.927 0 4.56 1.838 4.56 4.425 0 2.383-1.633 4.357-4.56 4.357-2.927 0-4.492-1.77-4.492-4.357 0-2.382 1.565-4.425 4.492-4.425M139.859 137.585h4.697c8.985 0 14.839-4.832 14.839-16.473 0-9.667-5.854-14.704-15.452-14.704h-4.084zm-8.17 6.74V99.67h12.798c15.114 0 23.486 7.556 23.486 21.034 0 16.134-9.122 23.622-23.757 23.622H131.69" fill="#e5651a"/></svg>